<svg width="541" height="40" viewBox="0 0 541 40" fill="none" xmlns="http://www.w3.org/2000/svg">
<g clip-path="url(#clip0_10834_19726)">
<path d="M192.571 12.0424L200.56 8.28743V39.1507H205.968V0.0495721L192.571 6.31418V12.0424Z" fill="black"/>
<path d="M230.776 14.6477H225.386V24.878H215.715L229.342 1.35223H223.15L208.988 25.8359L208.912 25.9317V30.0315H225.386V39.1506H230.776V30.0315H237.025V24.878H230.776V14.6477Z" fill="black"/>
<path d="M275.554 4.30256C274.325 3.30248 272.909 2.55982 271.388 2.11857C269.705 1.59778 267.951 1.33933 266.19 1.35226H252.276V39.1506H257.456V23.4412H266.19C267.951 23.4462 269.703 23.1879 271.388 22.6749C272.912 22.2124 274.337 21.472 275.593 20.4909C276.79 19.5179 277.762 18.2955 278.44 16.9084C279.082 15.4886 279.408 13.9459 279.396 12.3872C279.414 10.8135 279.08 9.25582 278.421 7.8276C277.757 6.44212 276.774 5.23413 275.554 4.30256ZM266.151 18.3452H257.417V6.44824H266.151C267.374 6.45204 268.589 6.62613 269.764 6.9655C270.68 7.23467 271.536 7.67685 272.286 8.26823C272.873 8.723 273.339 9.31505 273.643 9.99243C273.996 10.7411 274.179 11.5591 274.178 12.3872C274.187 13.2039 274.004 14.0112 273.643 14.7436C273.343 15.4613 272.855 16.0838 272.229 16.5444C271.497 17.1265 270.66 17.5622 269.764 17.828C268.589 18.1673 267.374 18.3414 266.151 18.3452Z" fill="black"/>
<path d="M299.081 12.2531C297.725 11.7208 296.274 11.4793 294.819 11.5442C294.008 11.6155 293.204 11.7435 292.411 11.9274C291.646 12.1569 290.908 12.4718 290.213 12.8661C289.225 13.4506 288.356 14.2177 287.652 15.1267V11.9082H282.473V39.1506H287.652V24.1884C287.704 23.0779 287.917 21.9809 288.283 20.9315C288.656 19.9696 289.214 19.0907 289.927 18.3452C290.563 17.7139 291.334 17.2357 292.181 16.947C293.029 16.6582 293.931 16.5664 294.819 16.6785C295.818 16.7102 296.79 17.0149 297.629 17.5598L298.164 17.9238L299.349 12.3872L299.081 12.2531Z" fill="black"/>
<path d="M313.434 11.7549C310.658 11.7625 307.947 12.5943 305.642 14.1453C303.338 15.6963 301.543 17.8969 300.485 20.4694C299.427 23.0419 299.153 25.871 299.698 28.5994C300.243 31.3277 301.582 33.8332 303.546 35.7994C305.51 37.7656 308.011 39.1044 310.734 39.6468C313.457 40.1891 316.278 39.9108 318.843 38.8468C321.408 37.7829 323.601 35.9811 325.145 33.6688C326.689 31.3566 327.516 28.6376 327.519 25.8551C327.514 22.1137 326.028 18.5273 323.387 15.8836C320.746 13.2399 317.166 11.7549 313.434 11.7549ZM313.434 34.7443C311.656 34.7595 309.914 34.2445 308.429 33.2648C306.945 32.2851 305.784 30.8849 305.095 29.2422C304.406 27.5996 304.22 25.7887 304.56 24.0397C304.9 22.2907 305.752 20.6826 307.006 19.4199C308.26 18.1572 309.861 17.2968 311.604 16.9482C313.347 16.5996 315.155 16.7785 316.796 17.4621C318.438 18.1458 319.84 19.3033 320.823 20.7875C321.807 22.2717 322.328 24.0157 322.321 25.7976C322.331 26.9748 322.109 28.1424 321.667 29.2331C321.225 30.3239 320.572 31.3162 319.746 32.1531C318.92 32.99 317.937 33.6549 316.854 34.1094C315.771 34.564 314.608 34.7993 313.434 34.8018V34.7443Z" fill="black"/>
<path d="M19.5523 9.87746H0.000976562V39.1506H5.33316V15.2033H19.5523V9.87746Z" fill="black"/>
<path d="M95.7127 0.10701H90.3996V39.1506H95.7127V0.10701Z" fill="black"/>
<path d="M79.7543 9.85836V13.46C78.4085 11.8724 76.6678 10.6695 74.7088 9.9733C72.4125 9.21671 69.9699 9.01668 67.5815 9.38962C65.193 9.76256 62.9269 10.6978 60.9689 12.1187C59.0109 13.5396 57.4169 15.4056 56.3177 17.5637C55.2184 19.7217 54.6453 22.1102 54.6453 24.5332C54.6453 26.9563 55.2184 29.3448 56.3177 31.5028C57.4169 33.6608 59.0109 35.5268 60.9689 36.9477C62.9269 38.3686 65.193 39.3039 67.5815 39.6769C69.9699 40.0498 72.4125 39.8498 74.7088 39.0932C76.6678 38.397 78.4085 37.1941 79.7543 35.6065V39.1698H85.0674V9.85836H79.7543ZM69.7016 34.7635C67.686 34.7635 65.7158 34.1641 64.0402 33.0413C62.3646 31.9184 61.059 30.3225 60.2886 28.4556C59.5182 26.5886 59.3175 24.5345 59.7121 22.5533C60.1068 20.572 61.0788 18.7526 62.5054 17.3253C63.9319 15.898 65.7487 14.927 67.726 14.5352C69.7033 14.1433 71.752 14.3483 73.6131 15.1241C75.4741 15.8999 77.0637 17.2116 78.1807 18.8934C79.2977 20.5751 79.8919 22.5512 79.8881 24.5716C79.873 27.268 78.7924 29.8485 76.8832 31.748C74.9739 33.6475 72.3915 34.7112 69.7016 34.706V34.7635Z" fill="black"/>
<path d="M142.173 15.9697C141.352 13.9145 139.927 12.158 138.088 10.9332C136.248 9.7083 134.08 9.07288 131.872 9.11117C129.982 9.10836 128.121 9.57387 126.454 10.4663C124.787 11.3587 123.365 12.6503 122.316 14.2263C121.464 12.644 120.192 11.3288 118.64 10.4261C117.089 9.52339 115.318 9.06831 113.525 9.11117C112.141 9.08711 110.769 9.37603 109.512 9.95646C108.255 10.5369 107.144 11.3939 106.262 12.4638V9.85832H101.026V39.1506H106.358V21.5254C106.322 20.4293 106.498 19.3366 106.874 18.3069C107.378 17.1222 108.218 16.1122 109.29 15.4022C110.362 14.6923 111.619 14.3138 112.904 14.3138C114.189 14.3138 115.445 14.6923 116.517 15.4022C117.589 16.1122 118.429 17.1222 118.934 18.3069C119.303 19.3381 119.471 20.4306 119.43 21.5254V39.1506H124.763V21.5254C124.717 20.4288 124.893 19.3342 125.279 18.3069C125.783 17.1222 126.623 16.1122 127.695 15.4022C128.767 14.6923 130.024 14.3138 131.308 14.3138C132.593 14.3138 133.85 14.6923 134.922 15.4022C135.994 16.1122 136.834 17.1222 137.338 18.3069C137.707 19.3381 137.876 20.4306 137.835 21.5254V39.1506H143.167V22.3492C143.24 20.1789 142.903 18.0145 142.173 15.9697Z" fill="black"/>
<path d="M47.1115 13.46C44.1567 10.6307 40.2276 9.05187 36.1414 9.05187C32.0551 9.05187 28.126 10.6307 25.1712 13.46C22.3543 16.421 20.7828 20.3555 20.7828 24.447C20.7828 28.5386 22.3543 32.473 25.1712 35.434C28.1039 38.2974 32.0476 39.8815 36.1414 39.8403C40.4954 39.9044 44.7157 38.3325 47.9715 35.434C48.8618 34.6096 49.6451 33.6763 50.3032 32.6561L45.5252 29.8783C45.0891 30.5777 44.5692 31.2211 43.9772 31.794C41.8168 33.7068 39.0235 34.7449 36.1414 34.706C33.4328 34.7303 30.8236 33.6841 28.8789 31.794C27.5593 30.4312 26.6458 28.7259 26.2415 26.8705H51.3161C51.6964 24.4615 51.5146 21.997 50.7851 19.6702C50.0556 17.3435 48.7982 15.2178 47.1115 13.46ZM26.2415 22.1193C26.6595 20.297 27.5723 18.6261 28.8789 17.2916C30.8347 15.4179 33.436 14.3723 36.1414 14.3723C38.8468 14.3723 41.448 15.4179 43.4038 17.2916C44.7264 18.637 45.641 20.3311 46.0412 22.1768L26.2415 22.1193Z" fill="black"/>
<path d="M172.791 13.46C169.841 10.6275 165.914 9.04626 161.83 9.04626C157.745 9.04626 153.819 10.6275 150.869 13.46C148.044 16.4164 146.466 20.3526 146.466 24.447C146.466 28.5413 148.044 32.4775 150.869 35.434C153.794 38.298 157.732 39.8826 161.82 39.8403C166.181 39.9073 170.408 38.3354 173.67 35.434C174.554 34.6091 175.331 33.6758 175.982 32.6561L171.204 29.8782C170.775 30.5773 170.261 31.2207 169.675 31.794C167.505 33.7032 164.707 34.7404 161.82 34.706C159.113 34.722 156.507 33.677 154.558 31.794C153.238 30.4312 152.325 28.7259 151.92 26.8704H176.995C177.38 24.4614 177.2 21.9956 176.471 19.6681C175.741 17.3406 174.481 15.2152 172.791 13.46ZM151.92 22.1193C152.338 20.2969 153.251 18.6261 154.558 17.2915C156.514 15.4178 159.115 14.3722 161.82 14.3722C164.526 14.3722 167.127 15.4178 169.083 17.2915C170.405 18.637 171.32 20.331 171.72 22.1768L151.92 22.1193Z" fill="black"/>
<path d="M425.276 0.375236C424.34 0.41022 423.455 0.814236 422.815 1.49944C422.174 2.18465 421.829 3.09565 421.855 4.03438C421.855 4.94387 422.215 5.81611 422.857 6.45922C423.499 7.10233 424.369 7.46363 425.276 7.46363C426.183 7.46363 427.053 7.10233 427.695 6.45922C428.337 5.81611 428.697 4.94387 428.697 4.03438C428.723 3.09565 428.378 2.18465 427.737 1.49944C427.097 0.814236 426.212 0.41022 425.276 0.375236Z" fill="black"/>
<path d="M357.391 17.2916L356.646 17.0234L355.977 16.7743L355.04 16.3912C351.543 15.0693 348.428 13.6516 348.657 10.7779C348.982 6.1609 355.174 6.06512 355.231 6.06512C356.826 5.91425 358.427 6.27685 359.801 7.10024C361.176 7.92363 362.253 9.16494 362.876 10.6438L363.048 11.0461L367.864 9.13036L367.692 8.70889C365.628 3.70871 361.194 1.04577 355.174 1.04577C347.529 1.04577 343.707 5.93101 343.42 10.4714C342.885 17.4065 349.765 20.0503 352.976 21.2381H353.11C353.359 21.3156 353.602 21.4117 353.836 21.5255C354.161 21.6787 354.562 21.7937 354.983 21.9469L355.499 22.1194C359.723 23.5945 363.526 25.2421 363.621 29.2077C363.659 29.8726 363.547 30.5373 363.296 31.1537C363.045 31.77 362.66 32.3226 362.169 32.7711C360.905 33.7462 359.428 34.407 357.86 34.6993C356.292 34.9917 354.677 34.9073 353.148 34.453C351.619 33.9987 350.218 33.1875 349.062 32.0859C347.906 30.9843 347.027 29.6238 346.497 28.1158L346.383 27.6943L341.375 29.0353L341.49 29.4568C342.352 32.454 344.154 35.0934 346.629 36.9842C349.103 38.8751 352.12 39.9168 355.231 39.9553H356.053C359.637 40.0788 363.129 38.8089 365.8 36.4111C366.812 35.4725 367.609 34.3256 368.137 33.0492C368.665 31.7727 368.911 30.3969 368.858 29.0162C368.667 21.1232 360.984 18.5368 357.391 17.2916Z" fill="black"/>
<path d="M385.715 11.7549C381.982 11.7549 378.403 13.2399 375.762 15.8836C373.121 18.5273 371.634 22.1137 371.629 25.8551C371.779 29.7157 373.447 33.36 376.269 35.9914C379.091 38.6228 382.837 40.0272 386.689 39.8977C389.107 39.9272 391.496 39.3817 393.662 38.306C395.828 37.2304 397.709 35.6552 399.15 33.7098L399.456 33.2691L394.659 31.1235L394.449 31.3725C393.473 32.4643 392.276 33.335 390.938 33.9263C389.6 34.5177 388.152 34.8161 386.689 34.8018C384.618 34.8631 382.58 34.2686 380.864 33.1028C379.149 31.9369 377.844 30.259 377.134 28.3073H399.437V27.79C399.557 27.1583 399.621 26.5172 399.628 25.8742C399.628 22.1592 398.168 18.5938 395.564 15.9508C392.959 13.3079 389.42 11.8003 385.715 11.7549ZM385.715 16.8509C387.657 16.8536 389.543 17.4993 391.081 18.6876C392.619 19.876 393.722 21.5403 394.219 23.422H377.191C377.695 21.5404 378.802 19.8774 380.343 18.6897C381.883 17.5021 383.771 16.8559 385.715 16.8509Z" fill="black"/>
<path d="M415.911 11.5442C415.127 11.6056 414.348 11.7208 413.58 11.8891C412.807 12.1149 412.063 12.4299 411.363 12.8278C410.378 13.4174 409.51 14.1837 408.802 15.0884V11.9082H403.622V39.1506H408.802V24.1884C408.862 23.0789 409.074 21.983 409.432 20.9316C409.805 19.9696 410.364 19.0907 411.076 18.3453C411.716 17.7135 412.49 17.2353 413.341 16.9466C414.192 16.658 415.097 16.5663 415.988 16.6785C416.981 16.7098 417.946 17.0147 418.778 17.5598L419.313 17.9238L420.46 12.3872L420.116 12.2531C418.778 11.7287 417.347 11.4874 415.911 11.5442Z" fill="black"/>
<path d="M427.856 11.9082H422.677V39.1506H427.856V11.9082Z" fill="black"/>
<path d="M445.171 11.7549C441.439 11.7549 437.859 13.2399 435.218 15.8836C432.577 18.5273 431.091 22.1137 431.086 25.8551C431.235 29.7157 432.903 33.36 435.725 35.9914C438.547 38.6228 442.294 40.0272 446.146 39.8977C448.576 39.9394 450.981 39.3998 453.161 38.3236C455.342 37.2475 457.235 35.6658 458.683 33.7098L459.008 33.2691L454.211 31.1235L454.001 31.3725C453.025 32.4643 451.828 33.335 450.49 33.9263C449.152 34.5177 447.704 34.8161 446.242 34.8018C444.17 34.8631 442.132 34.2686 440.417 33.1028C438.701 31.9369 437.396 30.259 436.686 28.3073H458.989V27.79C459.1 27.157 459.164 26.5167 459.18 25.8742C459.18 22.1428 457.707 18.5631 455.082 15.9174C452.457 13.2717 448.894 11.7752 445.171 11.7549ZM445.171 16.8509C447.112 16.8568 448.997 17.5038 450.535 18.6916C452.072 19.8794 453.176 21.542 453.676 23.422H436.647C437.151 21.5404 438.259 19.8774 439.799 18.6897C441.34 17.5021 443.228 16.8559 445.171 16.8509Z" fill="black"/>
<path d="M473.571 22.9048C473.242 22.8141 472.922 22.6922 472.616 22.5408H472.463L472.023 22.3875C469.061 21.2764 468.048 20.4717 468.201 19.418C468.373 16.9467 471.87 16.9084 471.909 16.9084C472.842 16.7854 473.789 16.974 474.604 17.4449C475.42 17.9159 476.057 18.643 476.419 19.5138L476.572 19.9545L481.407 18.0387L481.235 17.6364C480.483 15.8152 479.177 14.2788 477.502 13.2466C475.827 12.2144 473.869 11.7393 471.909 11.889C466.175 11.889 463.289 15.7206 463.003 19.1115C462.62 24.4566 468.144 26.4873 470.17 27.2344C470.365 27.332 470.57 27.409 470.781 27.4643L471.909 27.8858C474.737 28.8628 476.916 29.8016 476.954 31.9281C476.976 32.2683 476.921 32.6091 476.791 32.9244C476.662 33.2398 476.463 33.5215 476.209 33.7481C475.073 34.6613 473.624 35.0881 472.176 34.9359C470.974 34.945 469.801 34.5662 468.831 33.8555C467.86 33.1448 467.144 32.1399 466.787 30.9894L466.672 30.5679L461.684 31.9089L461.799 32.3304C462.447 34.5331 463.786 36.4678 465.618 37.848C467.449 39.2282 469.675 39.9805 471.966 39.9935H472.578C475.249 40.0882 477.852 39.1404 479.84 37.3498C480.608 36.6384 481.211 35.7673 481.607 34.7977C482.003 33.828 482.183 32.7832 482.134 31.7365C481.942 25.7784 476.094 23.7669 473.571 22.9048Z" fill="black"/>
<path d="M508.309 10.9165H506.668L507.24 7.13696H513.918V4.96899H505.218L503.978 13.142H508.309C509.873 13.142 510.541 13.5066 511.037 13.8903C511.743 14.4658 512.144 15.31 512.144 16.1734C512.144 17.8617 510.694 19.243 508.881 19.243C507.069 19.243 505.581 17.8809 505.581 16.1734V16.0007H503.272V16.1734C503.272 19.0704 505.79 21.4302 508.881 21.4302C511.972 21.4302 514.453 19.0704 514.453 16.1734C514.472 14.6385 513.766 13.2188 512.526 12.2019C511.419 11.3002 510.102 10.9165 508.309 10.9165Z" fill="black"/>
<path d="M532.369 11.9334H526.263L524.031 14.1205H530.175C529.641 17.0559 527.084 19.2239 524.146 19.2239C520.768 19.2239 518.04 16.442 518.04 13.0078C518.04 9.57354 520.768 6.83001 524.146 6.83001C525.786 6.83001 527.37 7.5015 528.515 8.691L528.648 8.8253L530.251 7.25209L530.118 7.11779C528.477 5.5062 526.397 4.62367 524.146 4.62367C519.528 4.62367 515.808 8.36485 515.808 13.0078C515.808 17.6507 519.528 21.3918 524.146 21.3918C528.763 21.3918 532.522 17.6507 532.522 13.0078C532.483 12.72 532.445 12.4322 532.407 12.106L532.369 11.9334Z" fill="black"/>
<path d="M527.58 0H505.39C498.216 0 492.435 5.81322 492.435 13.027C492.435 20.2408 498.216 26.054 505.39 26.054H527.58C534.754 26.054 540.535 20.2408 540.535 13.027C540.535 5.81322 534.716 0 527.58 0ZM527.58 24.6342H505.39C499.037 24.6342 493.847 19.4158 493.847 13.027C493.847 6.6382 499.037 1.41973 505.39 1.41973H527.58C533.933 1.41973 539.123 6.6382 539.123 13.027C539.123 19.4158 533.933 24.6342 527.58 24.6342Z" fill="black"/>
</g>
<defs>
<clipPath id="clip0_10834_19726">
<rect width="541" height="40" fill="white"/>
</clipPath>
</defs>
</svg>
