<svg width="30" height="30" viewBox="0 0 30 30" fill="none" xmlns="http://www.w3.org/2000/svg">
<path fill-rule="evenodd" clip-rule="evenodd" d="M25.9958 14.8238L29.4109 15.8603C30.1709 16.0911 30.2313 16.544 29.382 16.7968L25.8843 17.8368C25.2997 18.0106 25.1747 18.1387 25.7176 18.3318L27.7957 19.0708C28.3736 19.2771 28.3855 19.5816 27.7489 19.8037L24.1203 21.0675C23.6343 21.236 23.2276 21.6125 23.0625 21.7881C23.0606 21.79 23.059 21.7909 23.0575 21.7917C23.0563 21.7924 23.0551 21.793 23.0539 21.7942C21.1323 23.8901 18.233 25.2233 15 25.2233C11.767 25.2233 8.86765 23.8901 6.94605 21.7942C6.9435 21.7916 6.94095 21.7916 6.93755 21.7881C6.77245 21.6125 6.3657 21.2369 5.87975 21.0675L2.25105 19.8037C1.6145 19.5816 1.62645 19.2762 2.20425 19.0708L4.2824 18.3318C4.82535 18.1387 4.70025 18.0106 4.11565 17.8368L0.618 16.7968C-0.23131 16.544 -0.170885 16.0911 0.58905 15.8603L4.00415 14.8238C4.52155 14.6667 4.4058 14.4999 4.0186 14.363L1.90895 13.6187C1.90235 13.6164 1.89643 13.6139 1.89024 13.6113C1.88448 13.6089 1.87849 13.6063 1.8715 13.6038C1.16265 13.3519 1.06135 12.892 1.81195 12.6243L4.99998 11.4746V11.9453C4.99998 13.4859 6.36888 14.7376 8.06021 14.7376H21.7125C23.4038 14.7376 24.7727 13.4859 24.7727 11.9453V11.3911C24.8006 11.4021 24.8293 11.413 24.8589 11.4237L28.188 12.6243C28.9387 12.892 28.8365 13.3519 28.1285 13.6038C28.114 13.6091 28.1029 13.6135 28.091 13.6187L25.9814 14.363C25.5942 14.499 25.4785 14.6667 25.9958 14.8238ZM23.2938 9.53755C23.2774 9.47707 23.2626 9.41581 23.2497 9.3541C22.7875 6.90015 22.1476 5.27822 21.6175 4.42073C21.2566 3.8362 20.8754 4.13198 20.6124 4.45584L19.0908 6.33143C18.844 6.63597 18.4492 6.76938 18.0823 6.6623C17.4892 6.48941 16.4475 6.26911 15 6.26911C13.5524 6.26911 12.5108 6.49028 11.9177 6.6623C11.5508 6.76938 11.156 6.63597 10.9092 6.33143L9.3876 4.45584C9.12465 4.13198 8.7434 3.8362 8.38255 4.42073C7.8524 5.27822 7.2133 6.90015 6.75035 9.3541C6.73738 9.41581 6.72255 9.47707 6.70615 9.53755H23.2938ZM14.6086 16.0098C13.2631 16.0098 12 16.2138 12 16.508C12 16.7002 12.2844 16.8368 12.6529 17.0139C12.8635 17.115 13.1016 17.2294 13.3298 17.3749C13.5393 17.5084 13.7081 17.6359 13.8546 17.7464L13.8546 17.7464L13.8546 17.7464C14.1469 17.967 14.3499 18.1202 14.6086 18.1202C14.8673 18.1202 15.0703 17.967 15.3626 17.7464L15.3626 17.7464L15.3626 17.7464C15.5091 17.6359 15.6779 17.5084 15.8874 17.3749C16.1156 17.2294 16.3536 17.1151 16.5642 17.0139L16.5642 17.0139C16.9328 16.8368 17.2172 16.7002 17.2172 16.508C17.2172 16.2098 15.9541 16.0098 14.6086 16.0098Z" fill="#333333"/>
<rect x="7" y="11" width="16" height="2" rx="1" fill="#333333"/>
</svg>
