<svg width="30" height="30" viewBox="0 0 30 30" fill="none" xmlns="http://www.w3.org/2000/svg">
<g clip-path="url(#clip0_7006_2248)">
<path d="M15.1818 2.43418L1.41421 16.2018C0.633165 16.9828 0.633164 18.2491 1.41421 19.0302L9.18138 26.7973C9.96865 27.5846 11.2462 27.5762 12.0358 26.7913C12.2668 26.5618 12.4969 26.3352 12.7011 26.138C12.9568 25.8912 13.2574 25.6078 13.5554 25.3298C14.3526 24.5862 14.4249 23.3428 13.707 22.5223L12.3616 20.9847C11.8405 20.3891 11.7312 19.5375 12.0851 18.8297C12.3476 18.3048 12.8326 17.9261 13.4056 17.7988L16.1222 17.1951C16.6805 17.071 17.159 16.7139 17.4367 16.214L18.9914 13.4156C19.3053 12.8505 19.9009 12.5 20.5474 12.5C21.1425 12.5 21.6983 12.7974 22.0284 13.2926L22.8053 14.4579C23.1612 14.9918 23.9206 15.0571 24.3624 14.5918L25.8352 13.0409C26.2732 12.5797 26.4657 11.9377 26.3537 11.3116L25.167 4.67716C25.0196 3.85304 24.3745 3.20794 23.5504 3.06054L16.9481 1.87964C16.3041 1.76444 15.6444 1.97155 15.1818 2.43418Z" fill="#333333"/>
<path d="M19.6173 14.6582C19.9935 13.9514 21.0065 13.9514 21.3827 14.6582L22.9793 17.6574C23.1179 17.9178 23.3645 18.1038 23.653 18.1654L26.9269 18.8648C27.6714 19.0239 27.9722 19.9235 27.4731 20.4984L25.1517 23.172C24.9691 23.3823 24.8825 23.6592 24.9127 23.9361L25.3001 27.4846C25.3854 28.2661 24.5773 28.8358 23.8699 28.4931L20.9361 27.0713C20.6607 26.9379 20.3393 26.9379 20.0639 27.0713L17.1301 28.4931C16.4227 28.8358 15.6146 28.2661 15.6999 27.4846L16.0873 23.9361C16.1175 23.6592 16.0309 23.3823 15.8483 23.172L13.5269 20.4984C13.0278 19.9235 13.3286 19.0239 14.0731 18.8648L17.347 18.1654C17.6355 18.1038 17.8821 17.9178 18.0207 17.6574L19.6173 14.6582Z" fill="#333333"/>
<path d="M21 7L25 3" stroke="white" stroke-width="1.2" stroke-linecap="round"/>
<circle cx="20.9979" cy="6.998" r="2.00248" transform="rotate(-0.0302681 20.9979 6.998)" fill="white"/>
</g>
<defs>
<clipPath id="clip0_7006_2248">
<rect width="30" height="30" fill="white"/>
</clipPath>
</defs>
</svg>
