<svg width="30" height="30" viewBox="0 0 30 30" fill="none" xmlns="http://www.w3.org/2000/svg">
<g clip-path="url(#clip0_7006_2277)">
<path d="M12.703 1.32086C14.1251 0.503068 15.8749 0.503069 17.297 1.32086L18.8175 2.19516C19.2788 2.46042 19.7825 2.64377 20.3064 2.73709L22.0331 3.04466C23.6483 3.33236 24.9886 4.45706 25.5524 5.99768L26.1552 7.64475C26.338 8.14447 26.6061 8.60874 26.9474 9.01698L28.0724 10.3625C29.1248 11.6211 29.4286 13.3442 28.8702 14.8868L28.2732 16.5359C28.0921 17.0363 27.999 17.5643 27.9981 18.0964L27.995 19.8503C27.9921 21.4908 27.1173 23.0061 25.698 23.8289L24.1806 24.7085C23.7202 24.9753 23.3095 25.3199 22.9668 25.727L21.8371 27.0686C20.7803 28.3234 19.1361 28.9219 17.52 28.6398L15.7923 28.3383C15.268 28.2468 14.732 28.2468 14.2077 28.3383L12.48 28.6398C10.8639 28.9219 9.21966 28.3234 8.16295 27.0686L7.03323 25.727C6.69047 25.3199 6.2798 24.9753 5.81942 24.7085L4.30204 23.8289C2.88272 23.0061 2.00786 21.4908 2.005 19.8503L2.00194 18.0964C2.00101 17.5643 1.90792 17.0363 1.72679 16.5359L1.1298 14.8868C0.571391 13.3442 0.875227 11.6211 1.92755 10.3625L3.05259 9.01698C3.39393 8.60874 3.66197 8.14447 3.84485 7.64475L4.44759 5.99768C5.01137 4.45705 6.35173 3.33236 7.96685 3.04466L9.69357 2.73709C10.2175 2.64377 10.7212 2.46042 11.1825 2.19516L12.703 1.32086Z" fill="#333333"/>
<path d="M10.0272 15.5652L12.3582 19.6026L11.3579 20.1801L7.18278 19.0665L8.70878 21.7096L7.6479 22.3221L5.3169 18.2847L6.31715 17.7072L10.4958 18.8269L8.96633 16.1777L10.0272 15.5652ZM16.0862 13.4815L12.4368 15.5885L12.7168 16.0735L15.8873 14.243L16.4333 15.1887L13.2628 17.0192L13.5428 17.5042L17.1922 15.3972L17.8047 16.4581L13.0944 19.1776L10.7634 15.1401L15.4737 12.4206L16.0862 13.4815ZM21.4322 8.98048L22.5356 8.34348L23.345 13.2594L22.3811 13.8159L20.0953 11.9428L20.5745 14.8589L19.6046 15.4189L15.758 12.2565L16.8553 11.623L19.1446 13.5021L18.6618 10.58L19.6257 10.0235L21.915 11.9026L21.4322 8.98048Z" fill="white"/>
</g>
<defs>
<clipPath id="clip0_7006_2277">
<rect width="30" height="30" fill="white"/>
</clipPath>
</defs>
</svg>
