<svg width="482" height="42" viewBox="0 0 482 42" fill="none" xmlns="http://www.w3.org/2000/svg">
<rect y="10.7" width="52.175" height="31.3" rx="7.0875" fill="white"/>
<path d="M10.1681 21.9883V32.4955H8.76828V19.7734H10.3453L17.5922 29.8199V19.7734H18.992V32.4955H17.7694L10.1681 21.9883ZM29.4247 28.1189H22.3904C22.4258 29.1939 22.7212 30.0326 23.2763 30.635C23.8433 31.2256 24.6112 31.5209 25.5798 31.5209C26.1704 31.5209 26.6606 31.3969 27.0504 31.1489C27.4402 30.889 27.7769 30.4874 28.0604 29.944L29.2298 30.4933C28.9345 31.202 28.4797 31.7454 27.8655 32.1234C27.2631 32.5014 26.5012 32.6904 25.5798 32.6904C24.1387 32.6904 23.0106 32.2592 22.1955 31.3969C21.3804 30.5228 20.9729 29.3356 20.9729 27.8354C20.9729 26.8668 21.1501 26.0222 21.5045 25.3017C21.8588 24.5693 22.3609 24.0023 23.0106 23.6007C23.6721 23.199 24.4399 22.9982 25.314 22.9982C26.6134 22.9982 27.6233 23.4294 28.3439 24.2917C29.0645 25.1422 29.4247 26.3116 29.4247 27.8V28.1189ZM25.2431 24.1677C24.4753 24.1677 23.8433 24.4216 23.3472 24.9296C22.8511 25.4375 22.544 26.1404 22.4258 27.0381H27.9541C27.8596 26.1049 27.5761 25.3962 27.1036 24.9119C26.6429 24.4157 26.0227 24.1677 25.2431 24.1677ZM34.7035 32.4955H33.2152L30.327 23.1754H31.7445L33.9948 30.9185L36.564 23.1754H38.0701L40.6393 30.8831L42.8542 23.1754H44.2362L41.3126 32.4955H39.8243L37.255 24.7878L34.7035 32.4955Z" fill="black"/>
<path d="M316.201 17.9749H301.02L295.433 23.4305H310.561C309.952 26.7734 308.237 29.8146 305.692 32.0656C303.146 34.3167 299.918 35.647 296.526 35.8429C293.134 36.0388 289.774 35.089 286.986 33.1459C284.199 31.2029 282.145 28.3794 281.155 25.1288C280.165 21.8783 280.296 18.3894 281.527 15.2223C282.759 12.0553 285.019 9.39392 287.944 7.66564C290.87 5.93736 294.291 5.24244 297.659 5.69249C301.027 6.14253 304.146 7.71143 306.516 10.1472L306.871 10.503L310.825 6.62873L310.456 6.25974C307.113 2.85666 302.692 0.719527 297.948 0.213242C293.205 -0.293043 288.433 0.862916 284.447 3.48375C280.461 6.10458 277.508 10.0278 276.093 14.5835C274.677 19.1392 274.887 24.0448 276.687 28.4629C278.486 32.881 281.763 36.5375 285.959 38.8082C290.154 41.0788 295.008 41.8227 299.691 40.9129C304.373 40.0031 308.595 37.4961 311.635 33.8197C314.675 30.1434 316.345 25.5258 316.359 20.7554C316.361 19.9839 316.308 19.2133 316.201 18.4493V17.9749Z" fill="white"/>
<path d="M314.436 6.18039H326.533V40.6801H332.16V6.18039H344.244V0.711573H314.436V6.18039Z" fill="white"/>
<path d="M358.622 6.18045H377.809L364.144 40.6801H370.324L384.662 4.52004L384.701 0.711634H358.622V6.18045Z" fill="white"/>
<path d="M427.002 3.83488C425.68 2.77597 424.162 1.98787 422.535 1.51558C420.748 0.976792 418.892 0.705895 417.026 0.711726H402.254V40.6802H407.815V24.1025H417.039C418.905 24.1083 420.762 23.8374 422.548 23.2986C424.163 22.8073 425.673 22.0209 427.002 20.9793C428.276 19.9347 429.302 18.6205 430.007 17.1314C430.701 15.6332 431.052 13.9989 431.034 12.3478C431.054 10.6795 430.703 9.02776 430.007 7.51151C429.298 6.07344 428.27 4.81601 427.002 3.83488ZM424.907 14.8648C424.59 15.6198 424.076 16.2755 423.418 16.7624C422.639 17.3781 421.742 17.8267 420.782 18.0802C419.545 18.4401 418.262 18.6221 416.974 18.6205H407.749V6.18055H416.974C418.262 6.17894 419.545 6.36086 420.782 6.72084C421.738 6.98436 422.633 7.432 423.418 8.03863C424.032 8.51578 424.52 9.13546 424.841 9.844C425.211 10.6311 425.4 11.4912 425.394 12.361C425.43 13.2223 425.263 14.08 424.907 14.8648Z" fill="white"/>
<path d="M452 12.1371C450.564 11.5867 449.028 11.3486 447.493 11.4387C446.652 11.4972 445.815 11.6116 444.989 11.7813C444.197 12.0356 443.433 12.3713 442.709 12.7828C441.701 13.3892 440.808 14.1701 440.074 15.0889V11.7681H434.499V40.6013H440.074V24.7879C440.141 23.6237 440.372 22.4748 440.759 21.3748C441.142 20.3612 441.73 19.4372 442.485 18.6601C443.152 17.9917 443.963 17.4858 444.857 17.1818C445.75 16.8779 446.702 16.784 447.638 16.9075C448.684 16.935 449.702 17.2545 450.576 17.8299L451.196 18.2384L452.514 12.3084L452 12.1371Z" fill="white"/>
<path d="M467.063 11.1222C464.121 11.1301 461.246 12.0094 458.803 13.6492C456.36 15.289 454.458 17.6159 453.336 20.336C452.214 23.0561 451.924 26.0476 452.5 28.9328C453.077 31.8181 454.496 34.4677 456.578 36.5474C458.659 38.627 461.31 40.0434 464.196 40.6177C467.081 41.1921 470.073 40.8987 472.792 39.7745C475.511 38.6503 477.836 36.7458 479.474 34.3013C481.111 31.8568 481.988 28.982 481.993 26.0396C481.986 22.0831 480.411 18.2909 477.612 15.4945C474.813 12.6981 471.019 11.1257 467.063 11.1222ZM467.063 35.4486C465.193 35.4617 463.361 34.9187 461.8 33.8888C460.239 32.8588 459.02 31.3882 458.296 29.6638C457.573 27.9394 457.378 26.0388 457.737 24.2035C458.096 22.3682 458.992 20.6808 460.311 19.3557C461.631 18.0306 463.314 17.1275 465.148 16.7611C466.982 16.3946 468.883 16.5813 470.611 17.2975C472.338 18.0138 473.814 19.2271 474.85 20.7836C475.887 22.3401 476.437 24.1696 476.432 26.0396C476.436 27.2729 476.196 28.4947 475.727 29.6352C475.258 30.7758 474.568 31.8126 473.698 32.6865C472.828 33.5604 471.794 34.2542 470.655 34.7281C469.517 35.202 468.296 35.4469 467.063 35.4486Z" fill="white"/>
<path d="M91.783 10.3051H71.0938V41.2073H76.7207V15.9321H91.783V10.3051Z" fill="white"/>
<path d="M172.34 0H166.713V41.2072H172.34V0Z" fill="white"/>
<path d="M155.432 10.3051V14.0608C154.034 12.3911 152.214 11.1262 150.161 10.3974C148.467 9.8056 146.685 9.50268 144.89 9.50129C142.532 9.50514 140.204 10.022 138.066 11.0159C135.928 12.0099 134.032 13.4571 132.51 15.2572C130.988 17.0573 129.875 19.1671 129.25 21.4402C128.625 23.7134 128.502 26.0953 128.889 28.4208C129.277 30.7463 130.166 32.9596 131.494 34.907C132.823 36.8545 134.56 38.4895 136.584 39.6985C138.607 40.9076 140.87 41.6617 143.215 41.9086C145.559 42.1555 147.93 41.8892 150.161 41.1282C152.213 40.3917 154.032 39.1228 155.432 37.4516V41.2204H161.059V10.3051H155.432ZM144.89 36.5159C142.761 36.5159 140.679 35.8845 138.908 34.7015C137.138 33.5185 135.758 31.837 134.943 29.8697C134.128 27.9024 133.915 25.7377 134.33 23.6492C134.746 21.5607 135.771 19.6424 137.277 18.1367C138.783 16.631 140.701 15.6056 142.789 15.1902C144.878 14.7747 147.043 14.988 149.01 15.8028C150.977 16.6177 152.659 17.9977 153.842 19.7682C155.025 21.5387 155.656 23.6202 155.656 25.7496C155.656 28.605 154.522 31.3435 152.503 33.3626C150.484 35.3816 147.745 36.5159 144.89 36.5159Z" fill="white"/>
<path d="M221.492 16.7359C220.627 14.5839 219.133 12.7427 217.205 11.4522C215.278 10.1617 213.006 9.48187 210.687 9.50123C208.689 9.49218 206.721 9.98154 204.961 10.925C203.201 11.8684 201.704 13.2361 200.605 14.9042C199.699 13.2339 198.35 11.8459 196.707 10.8926C195.063 9.93943 193.188 9.45797 191.289 9.50123C189.825 9.4765 188.375 9.78106 187.045 10.3924C185.715 11.0037 184.54 11.9061 183.606 13.0329V10.3051H177.979V41.2072H183.606V22.6C183.567 21.4469 183.75 20.2971 184.146 19.2133C184.679 17.9623 185.567 16.8955 186.701 16.1456C187.835 15.3957 189.165 14.9959 190.524 14.9959C191.884 14.9959 193.213 15.3957 194.348 16.1456C195.482 16.8955 196.37 17.9623 196.902 19.2133C197.305 20.2954 197.488 21.4465 197.443 22.6V41.2072H203.07V22.6C203.028 21.4456 203.216 20.2944 203.623 19.2133C204.153 17.9614 205.04 16.8932 206.173 16.1423C207.306 15.3913 208.635 14.9909 209.995 14.9909C211.354 14.9909 212.683 15.3913 213.816 16.1423C214.95 16.8932 215.836 17.9614 216.366 19.2133C216.773 20.2944 216.962 21.4456 216.92 22.6V41.2072H222.547V23.483C222.623 21.1876 222.266 18.8984 221.492 16.7359Z" fill="white"/>
<path d="M120.919 14.1532C117.794 11.1725 113.641 9.50953 109.322 9.50953C105.003 9.50953 100.851 11.1725 97.7255 14.1532C94.7448 17.2782 93.0819 21.4311 93.0819 25.7497C93.0819 30.0684 94.7448 34.2212 97.7255 37.3462C100.822 40.3637 104.985 42.0356 109.309 41.998C113.92 42.0622 118.389 40.4034 121.841 37.3462C122.779 36.4744 123.603 35.4869 124.292 34.4076L119.232 31.4821C118.774 32.1966 118.23 32.8517 117.611 33.4324C115.323 35.457 112.363 36.5564 109.309 36.516C106.442 36.5415 103.68 35.4332 101.626 33.4324C100.236 32.0089 99.2721 30.2237 98.8457 28.2799H125.373C125.773 25.7411 125.58 23.144 124.807 20.6928C124.034 18.2416 122.703 16.003 120.919 14.1532ZM98.8588 23.2327C99.2883 21.2861 100.251 19.4975 101.639 18.067C103.71 16.0932 106.461 14.9922 109.322 14.9922C112.183 14.9922 114.934 16.0932 117.005 18.067C118.421 19.4865 119.408 21.2771 119.851 23.2327H98.8588Z" fill="white"/>
<path d="M253.885 14.1532C250.76 11.1725 246.607 9.50953 242.288 9.50953C237.97 9.50953 233.817 11.1725 230.692 14.1532C227.705 17.2752 226.038 21.4291 226.038 25.7497C226.038 30.0703 227.705 34.2243 230.692 37.3462C233.792 40.3669 237.96 42.0391 242.288 41.998C246.896 42.0653 251.362 40.4058 254.807 37.3462C255.746 36.4712 256.574 35.4843 257.272 34.4076L252.211 31.4821C251.753 32.1999 251.204 32.8554 250.577 33.4324C248.296 35.4583 245.339 36.5582 242.288 36.516C239.421 36.5415 236.66 35.4332 234.606 33.4324C233.225 32.0071 232.275 30.2211 231.865 28.2799H258.392C258.783 25.7371 258.579 23.1383 257.797 20.6874C257.015 18.2364 255.676 15.9999 253.885 14.1532ZM231.865 23.2327C232.293 21.283 233.261 19.493 234.658 18.067C236.729 16.0932 239.48 14.9922 242.341 14.9922C245.202 14.9922 247.953 16.0932 250.024 18.067C251.421 19.4912 252.385 21.2824 252.804 23.2327H231.865Z" fill="white"/>
</svg>
