<?xml version="1.0" encoding="utf-8"?>
<!-- Generator: Adobe Illustrator 26.3.1, SVG Export Plug-In . SVG Version: 6.00 Build 0)  -->
<svg version="1.1" id="图层_1" xmlns="http://www.w3.org/2000/svg" xmlns:xlink="http://www.w3.org/1999/xlink" x="0px" y="0px"
	 viewBox="0 0 209.43 20.77" style="enable-background:new 0 0 209.43 20.77;" xml:space="preserve">
<style type="text/css">
	.st0{fill:#FFFFFF;}
</style>
<g>
	<g>
		<polygon class="st0" points="10.23,5.1 2.78,5.1 0,5.1 0,7.88 0,20.38 2.78,20.38 2.78,7.88 10.23,7.88 		"/>
		<rect x="47.3" y="0.01" class="st0" width="2.78" height="20.38"/>
		<path class="st0" d="M41.73,5.1v1.86c0,0-0.88-1.18-2.63-1.82c-0.82-0.28-1.7-0.44-2.62-0.44c-4.44,0-8.04,3.6-8.04,8.04
			s3.6,8.04,8.04,8.04c0.92,0,1.8-0.16,2.62-0.44c1.75-0.64,2.63-1.82,2.63-1.82v1.86h2.78V5.1H41.73z M36.47,18.06
			c-2.94,0-5.32-2.38-5.32-5.32c0-2.94,2.38-5.32,5.32-5.32c2.94,0,5.32,2.38,5.32,5.32C41.8,15.68,39.41,18.06,36.47,18.06z"/>
		<path class="st0" d="M74.39,8.28C73.5,6.16,71.53,4.7,69.04,4.7h0c-2.11,0-3.91,1.06-4.99,2.67c-0.91-1.61-2.49-2.67-4.6-2.67
			c-1.62,0-2.9,0.68-3.8,1.75V5.1h-2.78v15.29h2.78l0,0v-9.2c0-0.71,0.1-1.26,0.27-1.67c0.52-1.23,1.74-2.09,3.15-2.09
			c1.42,0,2.63,0.86,3.15,2.09c0.17,0.41,0.27,0.96,0.27,1.67v9.2h2.78h0v-9.2c0-0.71,0.1-1.26,0.27-1.67
			c0.52-1.23,1.74-2.09,3.15-2.09s2.63,0.86,3.15,2.09c0.17,0.41,0.27,0.96,0.27,1.67v9.2h2.78v-8.77
			C74.91,10.26,74.73,9.08,74.39,8.28z"/>
		<path class="st0" d="M24.65,7c-3.09-3.07-8.38-3.07-11.47,0c-3.07,3.09-3.07,8.38,0,11.47c1.55,1.53,3.64,2.3,5.74,2.3
			c2.26,0,4.52-0.77,6.19-2.3c0.48-0.44,0.88-0.94,1.22-1.46l-2.5-1.45c-0.22,0.35-0.49,0.67-0.8,0.97c-1.11,1.02-2.6,1.52-4.1,1.52
			c-1.39,0-2.78-0.51-3.8-1.52c-0.71-0.71-1.16-1.61-1.38-2.55h10.36h2.46h0.29C27.21,11.5,26.49,8.86,24.65,7z M13.73,11.49
			c0.21-0.95,0.67-1.84,1.38-2.55c2.05-2.03,5.55-2.03,7.6,0c0.71,0.72,1.17,1.61,1.38,2.55H13.73z"/>
		<path class="st0" d="M90.41,7c-3.09-3.07-8.38-3.07-11.47,0c-3.07,3.09-3.07,8.38,0,11.47c1.55,1.53,3.64,2.3,5.74,2.3
			c2.26,0,4.52-0.77,6.19-2.3c0.48-0.44,0.88-0.94,1.22-1.46l-2.5-1.45c-0.22,0.35-0.49,0.67-0.8,0.97c-1.11,1.02-2.6,1.52-4.1,1.52
			c-1.39,0-2.78-0.51-3.8-1.52c-0.71-0.71-1.16-1.61-1.38-2.55h10.36h2.46h0.29C92.98,11.5,92.25,8.86,90.41,7z M79.49,11.49
			c0.21-0.95,0.67-1.84,1.38-2.55c2.05-2.03,5.55-2.03,7.6,0c0.71,0.72,1.17,1.61,1.38,2.55H79.49z"/>
	</g>
	<g>
		<g>
			<path class="st0" d="M194.75,6.36c-0.58-0.47-1.27-0.67-2.21-0.67h-0.86l0.3-1.97h3.5V2.59h-4.56l-0.65,4.26h2.27
				c0.82,0,1.17,0.19,1.43,0.39c0.37,0.3,0.58,0.74,0.58,1.19c0,0.87-0.76,1.6-1.71,1.6c-0.95,0-1.73-0.71-1.73-1.6V8.34h-1.21v0.09
				c0,1.51,1.32,2.74,2.94,2.74c1.62,0,2.92-1.23,2.92-2.74C195.77,7.63,195.4,6.89,194.75,6.36z"/>
			<path class="st0" d="M205.15,6.22h-3.2l-1.17,1.14H204c-0.28,1.53-1.62,2.66-3.16,2.66c-1.77,0-3.2-1.45-3.2-3.24
				s1.43-3.22,3.2-3.22c0.86,0,1.69,0.35,2.29,0.97l0.07,0.07l0.84-0.82l-0.07-0.07c-0.86-0.84-1.95-1.3-3.13-1.3
				c-2.42,0-4.37,1.95-4.37,4.37s1.95,4.37,4.37,4.37c2.42,0,4.39-1.95,4.39-4.37c-0.02-0.15-0.04-0.3-0.06-0.47L205.15,6.22z"/>
			<path class="st0" d="M202.64,0h-11.63c-3.76,0-6.79,3.03-6.79,6.79c0,3.76,3.03,6.79,6.79,6.79h11.63c3.76,0,6.79-3.03,6.79-6.79
				C209.43,3.03,206.38,0,202.64,0z M202.64,12.84h-11.63c-3.33,0-6.05-2.72-6.05-6.05c0-3.33,2.72-6.05,6.05-6.05h11.63
				c3.33,0,6.05,2.72,6.05,6.05S205.97,12.84,202.64,12.84z"/>
		</g>
		<path class="st0" d="M114.24,2.17c-0.58-0.49-1.33-0.88-2.21-1.15c-0.85-0.26-1.77-0.4-2.73-0.4H102v19.77h2.75v-8.2h4.55
			c0.96,0,1.87-0.13,2.73-0.4c0.81-0.25,1.57-0.64,2.2-1.15c0.61-0.49,1.1-1.1,1.49-1.88c0.34-0.72,0.51-1.51,0.51-2.36
			c0-0.87-0.17-1.67-0.51-2.4C115.33,3.23,114.84,2.62,114.24,2.17z M109.31,9.49h-4.55V3.32h4.55c0.64,0,1.29,0.09,1.88,0.26
			c0.51,0.16,0.96,0.39,1.31,0.67c0.3,0.23,0.52,0.52,0.7,0.9c0.18,0.4,0.27,0.81,0.27,1.25c0,0.44-0.09,0.84-0.27,1.22
			c-0.18,0.4-0.41,0.69-0.74,0.93c-0.31,0.27-0.77,0.51-1.27,0.66C110.6,9.39,109.95,9.49,109.31,9.49z"/>
		<path class="st0" d="M128.29,9.96c0.45-0.5,1.03-1.29,1.28-2.01c0.22-0.6,0.34-1.24,0.34-1.88c0-3.16-2.74-5.73-6.1-5.73
			c-3.38,0-6.12,2.57-6.12,5.73v0.25h2.86V6.07c0-1.67,1.46-3.03,3.26-3.03c1.79,0,3.24,1.36,3.24,3.03c0,0.35-0.06,0.68-0.17,0.98
			c-0.13,0.32-0.44,0.79-0.76,1.14l-9,9.9v2.3h13.48v-2.7h-9.34L128.29,9.96z"/>
		<path class="st0" d="M151.34,2.17c-0.58-0.49-1.33-0.88-2.21-1.15c-0.85-0.26-1.77-0.4-2.73-0.4h-7.3v19.77h2.75v-8.2h4.55
			c0.96,0,1.87-0.13,2.73-0.4c0.81-0.25,1.57-0.64,2.2-1.15c0.61-0.49,1.1-1.1,1.49-1.88c0.34-0.72,0.51-1.51,0.51-2.36
			c0-0.87-0.17-1.67-0.51-2.4C152.43,3.23,151.94,2.62,151.34,2.17z M146.4,9.49h-4.55V3.32h4.55c0.64,0,1.29,0.09,1.88,0.26
			c0.51,0.16,0.96,0.39,1.31,0.67c0.3,0.23,0.52,0.52,0.7,0.9c0.18,0.4,0.27,0.81,0.27,1.25c0,0.44-0.09,0.84-0.27,1.22
			c-0.18,0.4-0.41,0.69-0.74,0.93c-0.31,0.27-0.77,0.51-1.27,0.66C147.7,9.39,147.05,9.49,146.4,9.49z"/>
		<path class="st0" d="M163.64,6.31c-0.64-0.26-1.4-0.38-2.23-0.35c-0.4,0.03-0.81,0.09-1.23,0.17c-0.38,0.11-0.76,0.28-1.16,0.49
			c-0.5,0.3-0.96,0.7-1.31,1.14V6.13h-2.75v14.26h2.75v-7.6l0-0.23c0.05-0.56,0.12-1.15,0.33-1.69c0.2-0.51,0.49-0.98,0.85-1.34
			c0.67-0.67,1.5-0.95,2.55-0.86c0.55,0.03,1.04,0.18,1.46,0.45l0.31,0.2l0.63-2.93L163.64,6.31z"/>
		<path class="st0" d="M171.16,6.04c-4.07,0-7.39,3.31-7.39,7.38c0,4.05,3.31,7.35,7.39,7.35s7.39-3.3,7.39-7.35
			C178.54,9.35,175.23,6.04,171.16,6.04z M171.16,18.07c-2.55,0-4.63-2.09-4.63-4.65c0-2.58,2.08-4.68,4.63-4.68s4.63,2.1,4.63,4.68
			C175.79,15.99,173.71,18.07,171.16,18.07z"/>
	</g>
</g>
</svg>
