<svg width="30" height="31" viewBox="0 0 30 31" fill="none" xmlns="http://www.w3.org/2000/svg">
<g clip-path="url(#clip0_7006_1643)">
<path d="M29.2051 10.6347C29.7209 11.2344 30.0041 11.994 30.0046 12.779C30.005 13.5641 29.7226 14.324 29.2073 14.9242L22.3392 22.2867L17.2531 27.6807C16.9972 28.0188 16.6652 28.2943 16.283 28.4856C15.9008 28.6769 15.4788 28.779 15.0498 28.7838C14.6212 28.7779 14.1996 28.6757 13.8174 28.4849C13.4353 28.2941 13.1028 28.0198 12.8454 27.683L7.87396 22.4715L0.797609 14.9589C0.278573 14.3722 -0.00743036 13.6213 -0.00784093 12.8441C-0.0082515 12.0669 0.276958 11.3157 0.795374 10.7285L4.05921 7.16533L6.76241 4.27149C7.02868 3.93616 7.36888 3.66447 7.75743 3.47683C8.14599 3.28918 8.57279 3.19047 9.00577 3.18811L21.0268 3.18176C21.4433 3.19932 21.8513 3.30293 22.2242 3.48581C22.5971 3.6687 22.9266 3.92675 23.1912 4.24313C24.3137 5.34441 26.7393 7.97975 28.2027 9.5334L29.2051 10.6347Z" fill="#333333"/>
<path d="M9.08667 14.4082L14.9993 20.4913L20.9055 14.402" stroke="white" stroke-width="1.5" stroke-linecap="round" stroke-linejoin="round"/>
</g>
<defs>
<clipPath id="clip0_7006_1643">
<rect width="29.9842" height="29.9842" fill="white" transform="translate(0 1) rotate(-0.0302681)"/>
</clipPath>
</defs>
</svg>
