<?xml version="1.0" encoding="utf-8"?>
<!-- Generator: Adobe Illustrator 26.3.1, SVG Export Plug-In . SVG Version: 6.00 Build 0)  -->
<svg version="1.1" id="图层_1" xmlns="http://www.w3.org/2000/svg" xmlns:xlink="http://www.w3.org/1999/xlink" x="0px" y="0px"
	 viewBox="0 0 168.66 20.8" style="enable-background:new 0 0 168.66 20.8;" xml:space="preserve">
<style type="text/css">
	.st0{fill:#FFFFFF;}
</style>
<g>
	<g>
		<polygon points="10.23,5.12 2.78,5.12 0,5.12 0,7.91 0,20.41 2.78,20.41 2.78,7.91 10.23,7.91 		"/>
		<rect x="47.3" y="0.03" width="2.78" height="20.38"/>
		<path d="M41.73,5.12v1.86c0,0-0.88-1.18-2.63-1.82c-0.82-0.28-1.7-0.44-2.62-0.44c-4.44,0-8.04,3.6-8.04,8.04s3.6,8.04,8.04,8.04
			c0.92,0,1.8-0.16,2.62-0.44c1.75-0.64,2.63-1.82,2.63-1.82v1.86h2.78V5.12H41.73z M36.47,18.09c-2.94,0-5.32-2.38-5.32-5.32
			c0-2.94,2.38-5.32,5.32-5.32c2.94,0,5.32,2.38,5.32,5.32C41.8,15.71,39.41,18.09,36.47,18.09z"/>
		<path d="M74.39,8.31c-0.89-2.11-2.86-3.58-5.34-3.58h0c-2.11,0-3.91,1.06-4.99,2.67c-0.91-1.61-2.49-2.67-4.6-2.67
			c-1.62,0-2.9,0.68-3.8,1.75V5.12h-2.78v15.29h2.78l0,0v-9.2c0-0.71,0.1-1.26,0.27-1.67c0.52-1.23,1.74-2.09,3.15-2.09
			c1.42,0,2.63,0.86,3.15,2.09c0.17,0.41,0.27,0.96,0.27,1.67v9.2h2.78h0v-9.2c0-0.71,0.1-1.26,0.27-1.67
			c0.52-1.23,1.74-2.09,3.15-2.09s2.63,0.86,3.15,2.09c0.17,0.41,0.27,0.96,0.27,1.67v9.2h2.78v-8.77
			C74.91,10.29,74.73,9.11,74.39,8.31z"/>
		<path d="M24.65,7.03c-3.09-3.07-8.38-3.07-11.47,0c-3.07,3.09-3.07,8.38,0,11.47c1.55,1.53,3.64,2.3,5.74,2.3
			c2.26,0,4.52-0.77,6.19-2.3c0.48-0.44,0.88-0.94,1.22-1.46l-2.5-1.45c-0.22,0.35-0.49,0.67-0.8,0.97c-1.11,1.02-2.6,1.52-4.1,1.52
			c-1.39,0-2.78-0.51-3.8-1.52c-0.71-0.71-1.16-1.61-1.38-2.55h10.36h2.46h0.29C27.21,11.53,26.49,8.89,24.65,7.03z M13.73,11.52
			c0.21-0.95,0.67-1.84,1.38-2.55c2.05-2.03,5.55-2.03,7.6,0c0.71,0.72,1.17,1.61,1.38,2.55H13.73z"/>
		<path d="M90.41,7.03c-3.09-3.07-8.38-3.07-11.47,0c-3.07,3.09-3.07,8.38,0,11.47c1.55,1.53,3.64,2.3,5.74,2.3
			c2.26,0,4.52-0.77,6.19-2.3c0.48-0.44,0.88-0.94,1.22-1.46l-2.5-1.45c-0.22,0.35-0.49,0.67-0.8,0.97c-1.11,1.02-2.6,1.52-4.1,1.52
			c-1.39,0-2.78-0.51-3.8-1.52c-0.71-0.71-1.16-1.61-1.38-2.55h10.36h2.46h0.29C92.98,11.53,92.25,8.89,90.41,7.03z M79.49,11.52
			c0.21-0.95,0.67-1.84,1.38-2.55c2.05-2.03,5.55-2.03,7.6,0c0.71,0.72,1.17,1.61,1.38,2.55H79.49z"/>
	</g>
	<g>
		<g>
			<polygon points="100.76,6.26 104.95,4.3 104.95,20.41 107.77,20.41 107.77,0 100.76,3.27 			"/>
			<polygon points="121.01,7.62 118.19,7.62 118.19,12.96 113.14,12.96 120.27,0.68 117.03,0.68 109.61,13.46 109.58,13.51 
				109.58,15.65 118.19,15.65 118.19,20.41 121.01,20.41 121.01,15.65 124.29,15.65 124.29,12.96 121.01,12.96 			"/>
			<polygon points="138.04,6.19 134.74,6.19 131.43,10.94 128.12,6.19 124.82,6.19 129.78,13.3 124.82,20.41 128.12,20.41 
				131.43,15.66 134.74,20.41 138.04,20.41 133.08,13.3 			"/>
		</g>
		<g>
			<path d="M153.98,6.39c-0.58-0.47-1.27-0.67-2.21-0.67h-0.86l0.3-1.97h3.5V2.62h-4.56l-0.65,4.26h2.27c0.82,0,1.17,0.19,1.43,0.39
				c0.37,0.3,0.58,0.74,0.58,1.19c0,0.87-0.76,1.6-1.71,1.6c-0.95,0-1.73-0.71-1.73-1.6V8.37h-1.21v0.09c0,1.51,1.32,2.74,2.94,2.74
				c1.62,0,2.92-1.23,2.92-2.74C155.01,7.66,154.63,6.92,153.98,6.39z"/>
			<path d="M164.38,6.25h-3.2l-1.17,1.14h3.22c-0.28,1.53-1.62,2.66-3.16,2.66c-1.77,0-3.2-1.45-3.2-3.24s1.43-3.22,3.2-3.22
				c0.86,0,1.69,0.35,2.29,0.97l0.07,0.07l0.84-0.82l-0.07-0.07c-0.86-0.84-1.95-1.3-3.13-1.3c-2.42,0-4.37,1.95-4.37,4.37
				s1.95,4.37,4.37,4.37c2.42,0,4.39-1.95,4.39-4.37c-0.02-0.15-0.04-0.3-0.06-0.47L164.38,6.25z"/>
			<path d="M161.87,0.03h-11.63c-3.76,0-6.79,3.03-6.79,6.79c0,3.76,3.03,6.79,6.79,6.79h11.63c3.76,0,6.79-3.03,6.79-6.79
				C168.66,3.06,165.61,0.03,161.87,0.03z M161.87,12.87h-11.63c-3.33,0-6.05-2.72-6.05-6.05c0-3.33,2.72-6.05,6.05-6.05h11.63
				c3.33,0,6.05,2.72,6.05,6.05S165.2,12.87,161.87,12.87z"/>
		</g>
	</g>
</g>
</svg>
